/* XPM */
static char * wmbacklight_xpm[] = {
"74 105 138 2",
"  	c None",
". 	c #000000",
"+ 	c #400000",
"@ 	c #400300",
"# 	c #400500",
"$ 	c #400700",
"% 	c #202020",
"& 	c #400C00",
"* 	c #400E00",
"= 	c #401100",
"- 	c #401300",
"; 	c #401800",
"> 	c #401A00",
", 	c #401D00",
"' 	c #401F00",
") 	c #402400",
"! 	c #402600",
"~ 	c #402800",
"{ 	c #402B00",
"] 	c #402F00",
"^ 	c #403200",
"/ 	c #403400",
"( 	c #403700",
"_ 	c #403B00",
": 	c #403E00",
"< 	c #404000",
"[ 	c #3E4000",
"} 	c #394000",
"| 	c #374000",
"1 	c #344000",
"2 	c #324000",
"3 	c #2D4000",
"4 	c #2B4000",
"5 	c #284000",
"6 	c #264000",
"7 	c #214000",
"8 	c #1F4000",
"9 	c #1D4000",
"0 	c #1A4000",
"a 	c #154000",
"b 	c #134000",
"c 	c #114000",
"d 	c #0E4000",
"e 	c #0A4000",
"f 	c #074000",
"g 	c #054000",
"h 	c #034000",
"i 	c #C7C7C7",
"j 	c #00C9C1",
"k 	c #0C8580",
"l 	c #004941",
"m 	c #20B2AE",
"n 	c #184A48",
"o 	c #202323",
"p 	c #185250",
"q 	c #1A4241",
"r 	c #16736E",
"s 	c #1F2827",
"t 	c #18837E",
"u 	c #1E514E",
"v 	c #1F2625",
"w 	c #03C1B9",
"x 	c #1B6562",
"y 	c #1F2626",
"z 	c #138A85",
"A 	c #117672",
"B 	c #0EA39C",
"C 	c #175D5A",
"D 	c #1B403E",
"E 	c #1E3030",
"F 	c #1E3635",
"G 	c #175755",
"H 	c #168580",
"I 	c #1D5451",
"J 	c #194A48",
"K 	c #1B4240",
"L 	c #1F2B2A",
"M 	c #202222",
"N 	c #1F2928",
"O 	c #184C4A",
"P 	c #12A09A",
"Q 	c #1B3E3D",
"R 	c #1D3836",
"S 	c #1D3E3C",
"T 	c #185F5C",
"U 	c #156C68",
"V 	c #17625E",
"W 	c #12918B",
"X 	c #02C5BD",
"Y 	c #11A09A",
"Z 	c #0DA49D",
"` 	c #10A29B",
" .	c #09FF00",
"..	c #12FF00",
"+.	c #1CFF00",
"@.	c #25FF00",
"#.	c #38FF00",
"$.	c #42FF00",
"%.	c #4BFF00",
"&.	c #54FF00",
"*.	c #67FF00",
"=.	c #71FF00",
"-.	c #7AFF00",
";.	c #84FF00",
">.	c #97FF00",
",.	c #A0FF00",
"'.	c #AAFF00",
").	c #B3FF00",
"!.	c #C6FF00",
"~.	c #CFFF00",
"{.	c #D9FF00",
"].	c #E2FF00",
"^.	c #F5FF00",
"/.	c #FFFF00",
"(.	c #FFF500",
"_.	c #FFEC00",
":.	c #FFD900",
"<.	c #FFCF00",
"[.	c #FFC600",
"}.	c #FFBC00",
"|.	c #FFA900",
"1.	c #FFA000",
"2.	c #FF9700",
"3.	c #FF8D00",
"4.	c #FF7A00",
"5.	c #FF7100",
"6.	c #FF6700",
"7.	c #FF5E00",
"8.	c #FF4B00",
"9.	c #FF4200",
"0.	c #FF3800",
"a.	c #FF2F00",
"b.	c #FF1C00",
"c.	c #FF1200",
"d.	c #FF0900",
"e.	c #FF0000",
"f.	c #107D79",
"g.	c #188A86",
"                                                                                                                                .                   ",
"                                                                                                                                .                   ",
"                                                                                                                                .                   ",
"                                                                                                                                .                   ",
"        . . . . . . . . . . . . . . . . . . . . . . . . . . . . . . . . . . . . . . . . . . . . . . . . . . . . . . . .         .                   ",
"        . + @ # $ % & * = - % ; > , ' % ) ! ~ { % ] ^ / ( % _ : < [ % } | 1 2 % 3 4 5 6 % 7 8 9 0 % a b c d % e f g h i         .                   ",
"        . + @ # $ % & * = - % ; > , ' % ) ! ~ { % ] ^ / ( % _ : < [ % } | 1 2 % 3 4 5 6 % 7 8 9 0 % a b c d % e f g h i         .                   ",
"        . + @ # $ % & * = - % ; > , ' % ) ! ~ { % ] ^ / ( % _ : < [ % } | 1 2 % 3 4 5 6 % 7 8 9 0 % a b c d % e f g h i         .                   ",
"        . + @ # $ % & * = - % ; > , ' % ) ! ~ { % ] ^ / ( % _ : < [ % } | 1 2 % 3 4 5 6 % 7 8 9 0 % a b c d % e f g h i         .                   ",
"        . + @ # $ % & * = - % ; > , ' % ) ! ~ { % ] ^ / ( % _ : < [ % } | 1 2 % 3 4 5 6 % 7 8 9 0 % a b c d % e f g h i         .                   ",
"        . + @ # $ % & * = - % ; > , ' % ) ! ~ { % ] ^ / ( % _ : < [ % } | 1 2 % 3 4 5 6 % 7 8 9 0 % a b c d % e f g h i         .                   ",
"        . + @ # $ % & * = - % ; > , ' % ) ! ~ { % ] ^ / ( % _ : < [ % } | 1 2 % 3 4 5 6 % 7 8 9 0 % a b c d % e f g h i         .                   ",
"        i i i i i i i i i i i i i i i i i i i i i i i i i i i i i i i i i i i i i i i i i i i i i i i i i i i i i i i i         .                   ",
"                                                                                                                                .                   ",
"        . . . . . . . . . . . . . . . . . . . . . . . . . . . . . . . . . . . . .     . . . . . . . . . . . . . . . . i         .                   ",
"        . % % % % % % % % % % % % % % % % % % % % % % % % % % % % % % % % % % % i     % % % % % % % j j % % % % % % % i         .                   ",
"        . % % % % % % % % % % % % % % % % % % % % % % % % % % % % % % % % % % % i     % % % % % % % k j % % % % % % % i         .                   ",
"        . % % % % % % % % % % % % % % l l l l % % % l l l l % % % m m % % % % % i     % % % j n % % k j % % n j % % % i         .                   ",
"        . % % % % % % % % % % % l % l % % % % l % l % % % % l % m % % m % % % % i     % % % j j n % k j % n j j % % % i         .                   ",
"        . % % % % % % % % % % % l % l % % % % l % l % % % % l % m % % m % m % % i     % % % % j k n k j n k j % % % % i         .                   ",
"        . % % % % % % % % % % % l % l % % % % l % l % % % % l % % m m % m m % % i     % % % % % j k j j j j % % % % % i         .                   ",
"        . % % % % % % % % % % % l % l % % % % l % l % % % % l % % % % m m % % % i     % j k k k j j % % j k j j j j % i         .                   ",
"        . % % % % % % % % % % % % % % l l l l % % % l l l l % % % % m m % % % % i     % j j j j k j % % j j k k k j % i         .                   ",
"        . % % % % % % % % % % % l % l % % % % l % l % % % % l % % m m % % % % % i     % % % % % j j j j k j % % % % % i         .                   ",
"        . % % % % % % % % % % % l % l % % % % l % l % % % % l % m m % m m % % % i     % % % % j k n j k n k j % % % % i         .                   ",
"        . % % % % % % % % % % % l % l % % % % l % l % % % % l % m % m % % m % % i     % % % j j n % j k % n j j % % % i         .                   ",
"        . % % % % % % % % % % % l % l % % % % l % l % % % % l % % % m % % m % % i     % % % j n % % j k % % n j % % % i         .                   ",
"        . % % % % % % % % % % % % % % l l l l % % % l l l l % % % % % m m % % % i     % % % % % % % j k % % % % % % % i         .                   ",
"        . % % % % % % % % % % % % % % % % % % % % % % % % % % % % % % % % % % % i     % % % % % % % j j % % % % % % % i         .                   ",
"        . % % % % % % % % % % % % % % % % % % % % % % % % % % % % % % % % % % % i     % % % % % % % % % % % % % % % % i         .                   ",
"        i i i i i i i i i i i i i i i i i i i i i i i i i i i i i i i i i i i i i     i i i i i i i i i i i i i i i i i         .                   ",
"                                                                                                                                .                   ",
"                                                                                                                                .                   ",
"        . . . . . . . . . . . . . . . . . . . . . . . . . . . . . . . . . . . . . . . . . . . . . . . . . . . . . . . .         .                   ",
"        . l l l l % l l l l % l l l l % l l l l % l l l l % l l l l % l l l l % l l l l % l l l l % l l l l % l l l l i         .                   ",
"        . l l l l % l l l l % l l l l % l l l l % l l l l % l l l l % l l l l % l l l l % l l l l % l l l l % l l l l i         .                   ",
"        . l l l l % l l l l % l l l l % l l l l % l l l l % l l l l % l l l l % l l l l % l l l l % l l l l % l l l l i         .                   ",
"        . l l l l % l l l l % l l l l % l l l l % l l l l % l l l l % l l l l % l l l l % l l l l % l l l l % l l l l i         .                   ",
"        . l l l l % l l l l % l l l l % l l l l % l l l l % l l l l % l l l l % l l l l % l l l l % l l l l % l l l l i         .                   ",
"        . l l l l % l l l l % l l l l % l l l l % l l l l % l l l l % l l l l % l l l l % l l l l % l l l l % l l l l i         .                   ",
"        . l l l l % l l l l % l l l l % l l l l % l l l l % l l l l % l l l l % l l l l % l l l l % l l l l % l l l l i         .                   ",
"        i i i i i i i i i i i i i i i i i i i i i i i i i i i i i i i i i i i i i i i i i i i i i i i i i i i i i i i i         .                   ",
"                                                                                                                                .                   ",
"        . . . . . . . . . . . . . . . . . . . . . . . . . . . . . . . . . . . . .     . . . . . . . . . . . . . . . . i         .                   ",
"        . % % % % % % % % % % % % % % % % % % % % % % % % % % % % % % % % % % % i     % % % % % % % % % % % % % % % % i         .                   ",
"        . % % % % % % % % % % % % % % % % % % % % % % % % % % % % % % % % % % % i     % % % % % o % j j j % p q % % % i         .                   ",
"        . % % % % % % % % % % % % % % l l l l % % % l l l l % % % m m % % % % % i     % % % % o % j r % % j j % % % % i         .                   ",
"        . % % % % % % % % % % % l % l % % % % l % l % % % % l % m % % m % % % % i     % % % % s j t % % % % % % % % % i         .                   ",
"        . % % % % % % % % % % % l % l % % % % l % l % % % % l % m % % m % m % % i     % % % % % % j u % % % % % % % % i         .                   ",
"        . % % % % % % % % % % % l % l % % % % l % l % % % % l % % m m % m m % % i     % v % % % % % w % % % % % % v % i         .                   ",
"        . % % % % % % % % % % % l % l % % % % l % l % % % % l % % % % m m % % % i     % % j j j j j j j j j j j j x % i         .                   ",
"        . % % % % % % % % % % % % % % l l l l % % % l l l l % % % % m m % % % % i     y z j A B C B D B E B F G H j y i         .                   ",
"        . % % % % % % % % % % % l % l % % % % l % l % % % % l % % m m % % % % % i     I j j o J j K j L j M j N O j G i         .                   ",
"        . % % % % % % % % % % % l % l % % % % l % l % % % % l % m m % m m % % % i     j P P Q j R j S j T j U j V W j i         .                   ",
"        . % % % % % % % % % % % l % l % % % % l % l % % % % l % m % m % % m % % i     X P P Y P P P Z P ` P P Z P P X i         .                   ",
"        . % % % % % % % % % % % l % l % % % % l % l % % % % l % % % m % % m % % i     j j j j j j j j j j j j j j j j i         .                   ",
"        . % % % % % % % % % % % % % % l l l l % % % l l l l % % % % % m m % % % i     % % % % % % % % % % % % % % % % i         .                   ",
"        . % % % % % % % % % % % % % % % % % % % % % % % % % % % % % % % % % % % i     % % % % % % % % % % % % % % % % i         .                   ",
"        . % % % % % % % % % % % % % % % % % % % % % % % % % % % % % % % % % % % i     % % % % % % % % % % % % % % % % i         .                   ",
"        i i i i i i i i i i i i i i i i i i i i i i i i i i i i i i i i i i i i i     i i i i i i i i i i i i i i i i i         .                   ",
"                                                                                                                                .                   ",
"                                                                                                                                .                   ",
"                                                                                                                                .                   ",
"                                                                                                                                .                   ",
" ...+.@.% #.$.%.&.% *.=.-.;.% >.,.'.).% !.~.{.].% ^./.(._.% :.<.[.}.% |.1.2.3.% 4.5.6.7.% 8.9.0.a.% b.c.d.e.. . . . . . . . . . .                   ",
" ...+.@.% #.$.%.&.% *.=.-.;.% >.,.'.).% !.~.{.].% ^./.(._.% :.<.[.}.% |.1.2.3.% 4.5.6.7.% 8.9.0.a.% b.c.d.e.                                        ",
" ...+.@.% #.$.%.&.% *.=.-.;.% >.,.'.).% !.~.{.].% ^./.(._.% :.<.[.}.% |.1.2.3.% 4.5.6.7.% 8.9.0.a.% b.c.d.e.                                        ",
" ...+.@.% #.$.%.&.% *.=.-.;.% >.,.'.).% !.~.{.].% ^./.(._.% :.<.[.}.% |.1.2.3.% 4.5.6.7.% 8.9.0.a.% b.c.d.e.                                        ",
" ...+.@.% #.$.%.&.% *.=.-.;.% >.,.'.).% !.~.{.].% ^./.(._.% :.<.[.}.% |.1.2.3.% 4.5.6.7.% 8.9.0.a.% b.c.d.e.                                        ",
" ...+.@.% #.$.%.&.% *.=.-.;.% >.,.'.).% !.~.{.].% ^./.(._.% :.<.[.}.% |.1.2.3.% 4.5.6.7.% 8.9.0.a.% b.c.d.e.                                        ",
" ...+.@.% #.$.%.&.% *.=.-.;.% >.,.'.).% !.~.{.].% ^./.(._.% :.<.[.}.% |.1.2.3.% 4.5.6.7.% 8.9.0.a.% b.c.d.e.                                        ",
"+ @ # $ % & * = - % ; > , ' % ) ! ~ { % ] ^ / ( % _ : < [ % } | 1 2 % 3 4 5 6 % 7 8 9 0 % a b c d % e f g h                                         ",
"+ @ # $ % & * = - % ; > , ' % ) ! ~ { % ] ^ / ( % _ : < [ % } | 1 2 % 3 4 5 6 % 7 8 9 0 % a b c d % e f g h                                         ",
"+ @ # $ % & * = - % ; > , ' % ) ! ~ { % ] ^ / ( % _ : < [ % } | 1 2 % 3 4 5 6 % 7 8 9 0 % a b c d % e f g h                                         ",
"+ @ # $ % & * = - % ; > , ' % ) ! ~ { % ] ^ / ( % _ : < [ % } | 1 2 % 3 4 5 6 % 7 8 9 0 % a b c d % e f g h                                         ",
"+ @ # $ % & * = - % ; > , ' % ) ! ~ { % ] ^ / ( % _ : < [ % } | 1 2 % 3 4 5 6 % 7 8 9 0 % a b c d % e f g h                                         ",
"+ @ # $ % & * = - % ; > , ' % ) ! ~ { % ] ^ / ( % _ : < [ % } | 1 2 % 3 4 5 6 % 7 8 9 0 % a b c d % e f g h                                         ",
"+ @ # $ % & * = - % ; > , ' % ) ! ~ { % ] ^ / ( % _ : < [ % } | 1 2 % 3 4 5 6 % 7 8 9 0 % a b c d % e f g h                                         ",
"j j j j % j j j j % j j j j % j j j j % j j j j % j j j j % j j j j % j j j j % j j j j % j j j j % j j j j                                         ",
"j j j j % j j j j % j j j j % j j j j % j j j j % j j j j % j j j j % j j j j % j j j j % j j j j % j j j j                                         ",
"j j j j % j j j j % j j j j % j j j j % j j j j % j j j j % j j j j % j j j j % j j j j % j j j j % j j j j                                         ",
"j j j j % j j j j % j j j j % j j j j % j j j j % j j j j % j j j j % j j j j % j j j j % j j j j % j j j j                                         ",
"j j j j % j j j j % j j j j % j j j j % j j j j % j j j j % j j j j % j j j j % j j j j % j j j j % j j j j                                         ",
"j j j j % j j j j % j j j j % j j j j % j j j j % j j j j % j j j j % j j j j % j j j j % j j j j % j j j j                                         ",
"j j j j % j j j j % j j j j % j j j j % j j j j % j j j j % j j j j % j j j j % j j j j % j j j j % j j j j                                         ",
"l l l l % l l l l % l l l l % l l l l % l l l l % l l l l % l l l l % l l l l % l l l l % l l l l % l l l l                                         ",
"l l l l % l l l l % l l l l % l l l l % l l l l % l l l l % l l l l % l l l l % l l l l % l l l l % l l l l                                         ",
"l l l l % l l l l % l l l l % l l l l % l l l l % l l l l % l l l l % l l l l % l l l l % l l l l % l l l l                                         ",
"l l l l % l l l l % l l l l % l l l l % l l l l % l l l l % l l l l % l l l l % l l l l % l l l l % l l l l                                         ",
"l l l l % l l l l % l l l l % l l l l % l l l l % l l l l % l l l l % l l l l % l l l l % l l l l % l l l l                                         ",
"l l l l % l l l l % l l l l % l l l l % l l l l % l l l l % l l l l % l l l l % l l l l % l l l l % l l l l                                         ",
"l l l l % l l l l % l l l l % l l l l % l l l l % l l l l % l l l l % l l l l % l l l l % l l l l % l l l l                                         ",
"% % % % % % % % % % % % % % % % % % % % % % % % % % % % % % % % % % % % % % % % % % % % % % % % % % % % % % % % % % % % % % % % % % % % % % %       ",
"% % m m m m % % % l l l l f.% f.m m m m g.% f.m m m m f.% f.l l l l f.% f.m m m m f.% f.m m m m g.% f.m m m m f.% f.m m m m g.% f.m m m m g.%       ",
"% m % % % % m % l % % % % m % l % % % % m % l % % % % m % m % % % % m % m % % % % l % m % % % % l % l % % % % m % m % % % % m % m % % % % m %       ",
"% m % % % % m % l % % % % m % l % % % % m % l % % % % m % m % % % % m % m % % % % l % m % % % % l % l % % % % m % m % % % % m % m % % % % m %       ",
"% m % % % % m % l % % % % m % l % % % % m % l % % % % m % m % % % % m % m % % % % l % m % % % % l % l % % % % m % m % % % % m % m % % % % m %       ",
"% m % % % % m % l % % % % m % l % % % % m % l % % % % m % m % % % % m % m % % % % l % m % % % % l % l % % % % m % m % % % % m % m % % % % m %       ",
"% f.l l l l f.% % l l l l f.% f.m m m m f.% f.m m m m f.% f.m m m m f.% f.m m m m f.% f.m m m m f.% % l l l l f.% f.m m m m f.% f.m m m m f.%       ",
"% m % % % % m % l % % % % m % m % % % % l % l % % % % m % l % % % % m % l % % % % m % m % % % % m % l % % % % m % m % % % % m % l % % % % m %       ",
"% m % % % % m % l % % % % m % m % % % % l % l % % % % m % l % % % % m % l % % % % m % m % % % % m % l % % % % m % m % % % % m % l % % % % m %       ",
"% m % % % % m % l % % % % m % m % % % % l % l % % % % m % l % % % % m % l % % % % m % m % % % % m % l % % % % m % m % % % % m % l % % % % m %       ",
"% m % % % % m % l % % % % m % m % % % % l % l % % % % m % l % % % % m % l % % % % m % m % % % % m % l % % % % m % m % % % % m % l % % % % m %       ",
"% % m m m m % % % l l l l f.% f.m m m m f.% f.m m m m f.% % l l l l f.% f.m m m m f.% f.m m m m f.% % l l l l f.% f.m m m m f.% f.m m m m f.%       ",
"% % % % % % % % % % % % % % % % % % % % % % % % % % % % % % % % % % % % % % % % % % % % % % % % % % % % % % % % % % % % % % % % % % % % % % %       "};
